<mxfile host="65bd71144e">
    <diagram id="xXD7KuUDhyAFA9Q6CzOV" name="Page-1">
        <mxGraphModel dx="5836" dy="1126" grid="1" gridSize="10" guides="1" tooltips="1" connect="1" arrows="1" fold="1" page="1" pageScale="1" pageWidth="850" pageHeight="1100" math="0" shadow="0">
            <root>
                <mxCell id="0"/>
                <mxCell id="1" parent="0"/>
                <mxCell id="254" value="" style="rounded=1;whiteSpace=wrap;html=1;arcSize=5;fillColor=#f5f5f5;fontColor=#333333;strokeColor=light-dark(#ada9a9, #959595);" parent="1" vertex="1">
                    <mxGeometry x="-2520" y="1200" width="810" height="890" as="geometry"/>
                </mxCell>
                <mxCell id="119" value="" style="rounded=1;whiteSpace=wrap;html=1;arcSize=5;fillColor=#f5f5f5;fontColor=#333333;strokeColor=light-dark(#ada9a9, #959595);" parent="1" vertex="1">
                    <mxGeometry x="-1540" y="1240" width="640" height="700" as="geometry"/>
                </mxCell>
                <mxCell id="124" value="&lt;font style=&quot;font-size: 20px;&quot;&gt;HD&lt;/font&gt;" style="rounded=1;whiteSpace=wrap;html=1;fillColor=#ffe6cc;strokeColor=#d79b00;arcSize=2;" parent="1" vertex="1">
                    <mxGeometry x="-1356" y="1650" width="160" height="176.5" as="geometry"/>
                </mxCell>
                <mxCell id="142" value="" style="endArrow=none;html=1;entryX=0;entryY=0;entryDx=0;entryDy=0;exitX=0;exitY=0;exitDx=0;exitDy=0;dashed=1;" parent="1" source="124" target="140" edge="1">
                    <mxGeometry width="50" height="50" relative="1" as="geometry">
                        <mxPoint x="-1380" y="1610" as="sourcePoint"/>
                        <mxPoint x="-1250" y="1600" as="targetPoint"/>
                    </mxGeometry>
                </mxCell>
                <mxCell id="143" value="" style="endArrow=none;html=1;entryX=1;entryY=0;entryDx=0;entryDy=0;exitX=1;exitY=0;exitDx=0;exitDy=0;dashed=1;" parent="1" source="124" target="140" edge="1">
                    <mxGeometry width="50" height="50" relative="1" as="geometry">
                        <mxPoint x="-1346" y="1660" as="sourcePoint"/>
                        <mxPoint x="-1410" y="1520" as="targetPoint"/>
                    </mxGeometry>
                </mxCell>
                <mxCell id="140" value="" style="rounded=0;whiteSpace=wrap;html=1;dashed=1;" parent="1" vertex="1">
                    <mxGeometry x="-1340" y="1269" width="270" height="320" as="geometry"/>
                </mxCell>
                <mxCell id="102" style="edgeStyle=none;html=1;exitX=1;exitY=0.5;exitDx=0;exitDy=0;entryX=0;entryY=0.25;entryDx=0;entryDy=0;" parent="1" source="103" target="106" edge="1">
                    <mxGeometry relative="1" as="geometry">
                        <Array as="points">
                            <mxPoint x="-1220" y="1379"/>
                            <mxPoint x="-1220" y="1419"/>
                        </Array>
                    </mxGeometry>
                </mxCell>
                <mxCell id="103" value="" style="shape=sumEllipse;perimeter=ellipsePerimeter;whiteSpace=wrap;html=1;backgroundOutline=1;fillColor=#f8cecc;strokeColor=#b85450;" parent="1" vertex="1">
                    <mxGeometry x="-1310" y="1349" width="60" height="60" as="geometry"/>
                </mxCell>
                <mxCell id="104" style="edgeStyle=none;html=1;exitX=1;exitY=0.5;exitDx=0;exitDy=0;entryX=0;entryY=0.75;entryDx=0;entryDy=0;" parent="1" source="105" target="106" edge="1">
                    <mxGeometry relative="1" as="geometry">
                        <Array as="points">
                            <mxPoint x="-1220" y="1499"/>
                            <mxPoint x="-1220" y="1459"/>
                        </Array>
                    </mxGeometry>
                </mxCell>
                <mxCell id="105" value="" style="shape=sumEllipse;perimeter=ellipsePerimeter;whiteSpace=wrap;html=1;backgroundOutline=1;fillColor=#f8cecc;strokeColor=#b85450;" parent="1" vertex="1">
                    <mxGeometry x="-1310" y="1469" width="60" height="60" as="geometry"/>
                </mxCell>
                <mxCell id="106" value="&lt;font style=&quot;font-size: 20px;&quot;&gt;FA&lt;/font&gt;" style="rounded=0;whiteSpace=wrap;html=1;fillColor=#fff2cc;strokeColor=#d6b656;" parent="1" vertex="1">
                    <mxGeometry x="-1170" y="1399" width="80" height="80" as="geometry"/>
                </mxCell>
                <mxCell id="107" style="edgeStyle=none;html=1;exitX=0;exitY=0;exitDx=120;exitDy=20;exitPerimeter=0;entryX=0;entryY=0.5;entryDx=0;entryDy=0;" parent="1" source="108" target="103" edge="1">
                    <mxGeometry relative="1" as="geometry"/>
                </mxCell>
                <mxCell id="108" value="i_data[0]" style="externalPins=0;recursiveResize=0;shadow=0;dashed=0;align=center;html=1;strokeWidth=1;shape=mxgraph.rtl.abstract.entity;container=1;collapsible=0;kind=input;drawPins=0;left=0;right=1;bottom=0;top=0;fillColor=#e1d5e7;strokeColor=#9673a6;" parent="1" vertex="1">
                    <mxGeometry x="-1480" y="1359" width="120" height="40" as="geometry"/>
                </mxCell>
                <mxCell id="109" style="edgeStyle=none;html=1;exitX=0;exitY=0;exitDx=120;exitDy=20;exitPerimeter=0;entryX=0;entryY=0.5;entryDx=0;entryDy=0;" parent="1" source="110" target="105" edge="1">
                    <mxGeometry relative="1" as="geometry"/>
                </mxCell>
                <mxCell id="110" value="i_data[1]" style="externalPins=0;recursiveResize=0;shadow=0;dashed=0;align=center;html=1;strokeWidth=1;shape=mxgraph.rtl.abstract.entity;container=1;collapsible=0;kind=input;drawPins=0;left=0;right=1;bottom=0;top=0;fillColor=#e1d5e7;strokeColor=#9673a6;" parent="1" vertex="1">
                    <mxGeometry x="-1480" y="1479" width="120" height="40" as="geometry"/>
                </mxCell>
                <mxCell id="111" style="edgeStyle=none;html=1;exitX=0;exitY=0;exitDx=120;exitDy=20;exitPerimeter=0;entryX=0.5;entryY=0;entryDx=0;entryDy=0;" parent="1" source="112" target="103" edge="1">
                    <mxGeometry relative="1" as="geometry">
                        <Array as="points">
                            <mxPoint x="-1280" y="1339"/>
                        </Array>
                    </mxGeometry>
                </mxCell>
                <mxCell id="112" value="i_exp[0]" style="externalPins=0;recursiveResize=0;shadow=0;dashed=0;align=center;html=1;strokeWidth=1;shape=mxgraph.rtl.abstract.entity;container=1;collapsible=0;kind=input;drawPins=0;left=0;right=1;bottom=0;top=0;fillColor=#e1d5e7;strokeColor=#9673a6;" parent="1" vertex="1">
                    <mxGeometry x="-1480" y="1319" width="120" height="40" as="geometry"/>
                </mxCell>
                <mxCell id="113" style="edgeStyle=none;html=1;exitX=0;exitY=0;exitDx=120;exitDy=20;exitPerimeter=0;entryX=0.5;entryY=1;entryDx=0;entryDy=0;" parent="1" source="114" target="105" edge="1">
                    <mxGeometry relative="1" as="geometry">
                        <Array as="points">
                            <mxPoint x="-1280" y="1539"/>
                        </Array>
                    </mxGeometry>
                </mxCell>
                <mxCell id="114" value="i_exp[1]" style="externalPins=0;recursiveResize=0;shadow=0;dashed=0;align=center;html=1;strokeWidth=1;shape=mxgraph.rtl.abstract.entity;container=1;collapsible=0;kind=input;drawPins=0;left=0;right=1;bottom=0;top=0;fillColor=#e1d5e7;strokeColor=#9673a6;" parent="1" vertex="1">
                    <mxGeometry x="-1480" y="1519" width="120" height="40" as="geometry"/>
                </mxCell>
                <mxCell id="115" value="o_HD[1]" style="externalPins=0;recursiveResize=0;shadow=0;dashed=0;align=center;html=1;strokeWidth=1;shape=mxgraph.rtl.abstract.entity;container=1;collapsible=0;kind=output;drawPins=0;left=1;right=0;bottom=0;top=0;fillColor=#e1d5e7;strokeColor=#9673a6;" parent="1" vertex="1">
                    <mxGeometry x="-1040" y="1399" width="120" height="40" as="geometry"/>
                </mxCell>
                <mxCell id="116" value="o_HD[0]" style="externalPins=0;recursiveResize=0;shadow=0;dashed=0;align=center;html=1;strokeWidth=1;shape=mxgraph.rtl.abstract.entity;container=1;collapsible=0;kind=output;drawPins=0;left=1;right=0;bottom=0;top=0;fillColor=#e1d5e7;strokeColor=#9673a6;" parent="1" vertex="1">
                    <mxGeometry x="-1040" y="1439" width="120" height="40" as="geometry"/>
                </mxCell>
                <mxCell id="117" style="edgeStyle=none;html=1;exitX=1;exitY=0.25;exitDx=0;exitDy=0;entryX=0;entryY=0;entryDx=0;entryDy=20;entryPerimeter=0;" parent="1" source="106" target="115" edge="1">
                    <mxGeometry relative="1" as="geometry"/>
                </mxCell>
                <mxCell id="118" style="edgeStyle=none;html=1;exitX=1;exitY=0.75;exitDx=0;exitDy=0;entryX=0;entryY=0;entryDx=0;entryDy=20;entryPerimeter=0;" parent="1" source="106" target="116" edge="1">
                    <mxGeometry relative="1" as="geometry"/>
                </mxCell>
                <mxCell id="120" value="iA" style="text;html=1;align=center;verticalAlign=middle;resizable=0;points=[];autosize=1;strokeColor=none;fillColor=none;" parent="1" vertex="1">
                    <mxGeometry x="-1201" y="1396" width="30" height="30" as="geometry"/>
                </mxCell>
                <mxCell id="121" value="iB" style="text;html=1;align=center;verticalAlign=middle;resizable=0;points=[];autosize=1;strokeColor=none;fillColor=none;" parent="1" vertex="1">
                    <mxGeometry x="-1201" y="1436" width="30" height="30" as="geometry"/>
                </mxCell>
                <mxCell id="122" value="oS" style="text;html=1;align=center;verticalAlign=middle;resizable=0;points=[];autosize=1;strokeColor=none;fillColor=none;" parent="1" vertex="1">
                    <mxGeometry x="-1099" y="1436" width="40" height="30" as="geometry"/>
                </mxCell>
                <mxCell id="123" value="oC" style="text;html=1;align=center;verticalAlign=middle;resizable=0;points=[];autosize=1;strokeColor=none;fillColor=none;" parent="1" vertex="1">
                    <mxGeometry x="-1099" y="1396" width="40" height="30" as="geometry"/>
                </mxCell>
                <mxCell id="144" value="" style="endArrow=none;html=1;entryX=0;entryY=1;entryDx=0;entryDy=0;exitX=0;exitY=1;exitDx=0;exitDy=0;dashed=1;" parent="1" source="124" target="140" edge="1">
                    <mxGeometry width="50" height="50" relative="1" as="geometry">
                        <mxPoint x="-1346" y="1660" as="sourcePoint"/>
                        <mxPoint x="-1410" y="1200" as="targetPoint"/>
                    </mxGeometry>
                </mxCell>
                <mxCell id="127" value="i_exp[0]" style="externalPins=0;recursiveResize=0;shadow=0;dashed=0;align=center;html=1;strokeWidth=1;shape=mxgraph.rtl.abstract.entity;container=1;collapsible=0;kind=input;drawPins=0;left=0;right=1;bottom=0;top=0;fillColor=#e1d5e7;strokeColor=#9673a6;" parent="1" vertex="1">
                    <mxGeometry x="-1506" y="1658.25" width="120" height="40" as="geometry"/>
                </mxCell>
                <mxCell id="128" value="i_data[0]" style="externalPins=0;recursiveResize=0;shadow=0;dashed=0;align=center;html=1;strokeWidth=1;shape=mxgraph.rtl.abstract.entity;container=1;collapsible=0;kind=input;drawPins=0;left=0;right=1;bottom=0;top=0;fillColor=#e1d5e7;strokeColor=#9673a6;" parent="1" vertex="1">
                    <mxGeometry x="-1506" y="1698.25" width="120" height="40" as="geometry"/>
                </mxCell>
                <mxCell id="129" value="i_data[1]" style="externalPins=0;recursiveResize=0;shadow=0;dashed=0;align=center;html=1;strokeWidth=1;shape=mxgraph.rtl.abstract.entity;container=1;collapsible=0;kind=input;drawPins=0;left=0;right=1;bottom=0;top=0;fillColor=#e1d5e7;strokeColor=#9673a6;" parent="1" vertex="1">
                    <mxGeometry x="-1506" y="1737.25" width="120" height="40" as="geometry"/>
                </mxCell>
                <mxCell id="130" value="i_exp[1]" style="externalPins=0;recursiveResize=0;shadow=0;dashed=0;align=center;html=1;strokeWidth=1;shape=mxgraph.rtl.abstract.entity;container=1;collapsible=0;kind=input;drawPins=0;left=0;right=1;bottom=0;top=0;fillColor=#e1d5e7;strokeColor=#9673a6;" parent="1" vertex="1">
                    <mxGeometry x="-1506" y="1777.25" width="120" height="40" as="geometry"/>
                </mxCell>
                <mxCell id="132" style="edgeStyle=none;html=1;exitX=0;exitY=0;exitDx=120;exitDy=20;exitPerimeter=0;entryX=0.004;entryY=0.161;entryDx=0;entryDy=0;entryPerimeter=0;" parent="1" source="127" target="124" edge="1">
                    <mxGeometry relative="1" as="geometry"/>
                </mxCell>
                <mxCell id="133" style="edgeStyle=none;html=1;exitX=0;exitY=0;exitDx=120;exitDy=20;exitPerimeter=0;" parent="1" source="128" edge="1">
                    <mxGeometry relative="1" as="geometry">
                        <mxPoint x="-1356" y="1718.25" as="targetPoint"/>
                    </mxGeometry>
                </mxCell>
                <mxCell id="134" style="edgeStyle=none;html=1;exitX=0;exitY=0;exitDx=120;exitDy=20;exitPerimeter=0;entryX=0.005;entryY=0.601;entryDx=0;entryDy=0;entryPerimeter=0;" parent="1" source="129" target="124" edge="1">
                    <mxGeometry relative="1" as="geometry"/>
                </mxCell>
                <mxCell id="135" style="edgeStyle=none;html=1;exitX=0;exitY=0;exitDx=120;exitDy=20;exitPerimeter=0;" parent="1" source="130" edge="1">
                    <mxGeometry relative="1" as="geometry">
                        <mxPoint x="-1356" y="1797.25" as="targetPoint"/>
                    </mxGeometry>
                </mxCell>
                <mxCell id="136" value="o_HD[1]" style="externalPins=0;recursiveResize=0;shadow=0;dashed=0;align=center;html=1;strokeWidth=1;shape=mxgraph.rtl.abstract.entity;container=1;collapsible=0;kind=output;drawPins=0;left=1;right=0;bottom=0;top=0;fillColor=#e1d5e7;strokeColor=#9673a6;" parent="1" vertex="1">
                    <mxGeometry x="-1164" y="1698.25" width="120" height="40" as="geometry"/>
                </mxCell>
                <mxCell id="137" value="o_HD[0]" style="externalPins=0;recursiveResize=0;shadow=0;dashed=0;align=center;html=1;strokeWidth=1;shape=mxgraph.rtl.abstract.entity;container=1;collapsible=0;kind=output;drawPins=0;left=1;right=0;bottom=0;top=0;fillColor=#e1d5e7;strokeColor=#9673a6;" parent="1" vertex="1">
                    <mxGeometry x="-1164" y="1738.25" width="120" height="40" as="geometry"/>
                </mxCell>
                <mxCell id="138" style="edgeStyle=none;html=1;exitX=0;exitY=0;exitDx=0;exitDy=20;exitPerimeter=0;entryX=0;entryY=0;entryDx=0;entryDy=20;entryPerimeter=0;" parent="1" target="136" edge="1">
                    <mxGeometry relative="1" as="geometry">
                        <mxPoint x="-1196" y="1718.25" as="sourcePoint"/>
                    </mxGeometry>
                </mxCell>
                <mxCell id="139" style="edgeStyle=none;html=1;exitX=1;exitY=0.614;exitDx=0;exitDy=0;exitPerimeter=0;entryX=0;entryY=0;entryDx=0;entryDy=20;entryPerimeter=0;" parent="1" source="124" target="137" edge="1">
                    <mxGeometry relative="1" as="geometry"/>
                </mxCell>
                <mxCell id="145" value="" style="endArrow=none;html=1;entryX=1;entryY=1;entryDx=0;entryDy=0;exitX=1;exitY=1;exitDx=0;exitDy=0;dashed=1;" parent="1" source="124" target="140" edge="1">
                    <mxGeometry width="50" height="50" relative="1" as="geometry">
                        <mxPoint x="-1186" y="1660" as="sourcePoint"/>
                        <mxPoint x="-1140" y="1200" as="targetPoint"/>
                    </mxGeometry>
                </mxCell>
                <mxCell id="146" value="&lt;span style=&quot;color: rgb(63, 63, 63); font-size: 15px;&quot;&gt;Hamming Distance Unit&lt;/span&gt;" style="rounded=1;whiteSpace=wrap;html=1;fillColor=#e1d5e7;strokeColor=#9673a6;" parent="1" vertex="1">
                    <mxGeometry x="-1330" y="1880" width="240" height="40" as="geometry"/>
                </mxCell>
                <mxCell id="248" value="i_data[0]" style="externalPins=0;recursiveResize=0;shadow=0;dashed=0;align=center;html=1;strokeWidth=1;shape=mxgraph.rtl.abstract.entity;container=1;collapsible=0;kind=input;drawPins=0;left=0;right=1;bottom=0;top=0;fillColor=#e1d5e7;strokeColor=#9673a6;" parent="1" vertex="1">
                    <mxGeometry x="-2490" y="1245.75" width="120" height="40" as="geometry"/>
                </mxCell>
                <mxCell id="249" value="i_data1]" style="externalPins=0;recursiveResize=0;shadow=0;dashed=0;align=center;html=1;strokeWidth=1;shape=mxgraph.rtl.abstract.entity;container=1;collapsible=0;kind=input;drawPins=0;left=0;right=1;bottom=0;top=0;fillColor=#e1d5e7;strokeColor=#9673a6;" parent="1" vertex="1">
                    <mxGeometry x="-2490" y="1285.75" width="120" height="40" as="geometry"/>
                </mxCell>
                <mxCell id="150" style="edgeStyle=none;html=1;exitX=0;exitY=0;exitDx=120;exitDy=20;exitPerimeter=0;entryX=0.005;entryY=0.601;entryDx=0;entryDy=0;entryPerimeter=0;fillColor=#d5e8d4;strokeColor=light-dark(#619e3d, #446e2c);" parent="1" source="249" target="156" edge="1">
                    <mxGeometry relative="1" as="geometry">
                        <mxPoint x="-2140" y="1375.75" as="sourcePoint"/>
                        <Array as="points">
                            <mxPoint x="-2340" y="1305.75"/>
                            <mxPoint x="-2340" y="1374.75"/>
                        </Array>
                    </mxGeometry>
                </mxCell>
                <mxCell id="209" style="edgeStyle=none;html=1;exitX=0;exitY=0;exitDx=120;exitDy=20;exitPerimeter=0;entryX=0.005;entryY=0.601;entryDx=0;entryDy=0;entryPerimeter=0;fillColor=#d5e8d4;strokeColor=light-dark(#619e3d, #446e2c);" parent="1" source="249" target="215" edge="1">
                    <mxGeometry relative="1" as="geometry">
                        <mxPoint x="-2140" y="1555" as="sourcePoint"/>
                        <Array as="points">
                            <mxPoint x="-2340" y="1305.75"/>
                            <mxPoint x="-2340" y="1553.75"/>
                        </Array>
                    </mxGeometry>
                </mxCell>
                <mxCell id="223" style="edgeStyle=none;html=1;exitX=0;exitY=0;exitDx=120;exitDy=20;exitPerimeter=0;entryX=0.005;entryY=0.601;entryDx=0;entryDy=0;entryPerimeter=0;fillColor=#d5e8d4;strokeColor=light-dark(#619e3d, #446e2c);" parent="1" source="249" target="229" edge="1">
                    <mxGeometry relative="1" as="geometry">
                        <mxPoint x="-2140" y="1734" as="sourcePoint"/>
                        <Array as="points">
                            <mxPoint x="-2340" y="1305.75"/>
                            <mxPoint x="-2340" y="1732.75"/>
                        </Array>
                    </mxGeometry>
                </mxCell>
                <mxCell id="238" style="edgeStyle=none;html=1;exitX=0;exitY=0;exitDx=120.00000000000001;exitDy=20;exitPerimeter=0;entryX=0.005;entryY=0.601;entryDx=0;entryDy=0;entryPerimeter=0;fillColor=#d5e8d4;strokeColor=light-dark(#619e3d, #446e2c);" parent="1" source="249" target="244" edge="1">
                    <mxGeometry relative="1" as="geometry">
                        <mxPoint x="-2140" y="1913" as="sourcePoint"/>
                        <Array as="points">
                            <mxPoint x="-2340" y="1307.75"/>
                            <mxPoint x="-2340" y="1911.75"/>
                        </Array>
                    </mxGeometry>
                </mxCell>
                <mxCell id="235" value="1&#39;b1" style="externalPins=0;recursiveResize=0;shadow=0;dashed=0;align=center;html=1;strokeWidth=1;shape=mxgraph.rtl.abstract.entity;container=1;collapsible=0;kind=input;drawPins=0;left=0;right=1;bottom=0;top=0;fillColor=#e1d5e7;strokeColor=#9673a6;" parent="1" vertex="1">
                    <mxGeometry x="-2260" y="1814" width="120" height="40" as="geometry"/>
                </mxCell>
                <mxCell id="236" style="edgeStyle=none;html=1;exitX=0;exitY=0;exitDx=120;exitDy=20;exitPerimeter=0;entryX=0.004;entryY=0.161;entryDx=0;entryDy=0;entryPerimeter=0;" parent="1" source="235" target="244" edge="1">
                    <mxGeometry relative="1" as="geometry"/>
                </mxCell>
                <mxCell id="237" style="edgeStyle=none;html=1;exitX=0;exitY=0;exitDx=120.00000000000001;exitDy=20;exitPerimeter=0;fillColor=#dae8fc;strokeColor=light-dark(#4976b6, #5c79a3);" parent="1" source="248" edge="1">
                    <mxGeometry relative="1" as="geometry">
                        <mxPoint x="-2140" y="1873.75" as="sourcePoint"/>
                        <mxPoint x="-2110" y="1874" as="targetPoint"/>
                        <Array as="points">
                            <mxPoint x="-2310" y="1267.75"/>
                            <mxPoint x="-2310" y="1873.75"/>
                        </Array>
                    </mxGeometry>
                </mxCell>
                <mxCell id="239" style="edgeStyle=none;html=1;exitX=0;exitY=0;exitDx=120;exitDy=20;exitPerimeter=0;" parent="1" source="245" edge="1">
                    <mxGeometry relative="1" as="geometry">
                        <mxPoint x="-2110" y="1953" as="targetPoint"/>
                    </mxGeometry>
                </mxCell>
                <mxCell id="240" style="edgeStyle=none;html=1;exitX=1;exitY=0.614;exitDx=0;exitDy=0;exitPerimeter=0;entryX=0;entryY=0;entryDx=0;entryDy=20;entryPerimeter=0;" parent="1" source="244" target="242" edge="1">
                    <mxGeometry relative="1" as="geometry"/>
                </mxCell>
                <mxCell id="241" style="edgeStyle=none;html=1;exitX=0;exitY=0;exitDx=0;exitDy=20;exitPerimeter=0;entryX=0;entryY=0;entryDx=0;entryDy=20;entryPerimeter=0;" parent="1" target="243" edge="1">
                    <mxGeometry relative="1" as="geometry">
                        <mxPoint x="-1950" y="1874" as="sourcePoint"/>
                    </mxGeometry>
                </mxCell>
                <mxCell id="242" value="&lt;span style=&quot;color: rgb(0, 0, 0);&quot;&gt;o_branch_metric_3[0]&lt;/span&gt;" style="externalPins=0;recursiveResize=0;shadow=0;dashed=0;align=center;html=1;strokeWidth=1;shape=mxgraph.rtl.abstract.entity;container=1;collapsible=0;kind=output;drawPins=0;left=1;right=0;bottom=0;top=0;fillColor=#e1d5e7;strokeColor=#9673a6;" parent="1" vertex="1">
                    <mxGeometry x="-1918" y="1894" width="168" height="40" as="geometry"/>
                </mxCell>
                <mxCell id="243" value="&lt;span style=&quot;color: rgb(0, 0, 0);&quot;&gt;o_branch_metric_3[1]&lt;/span&gt;" style="externalPins=0;recursiveResize=0;shadow=0;dashed=0;align=center;html=1;strokeWidth=1;shape=mxgraph.rtl.abstract.entity;container=1;collapsible=0;kind=output;drawPins=0;left=1;right=0;bottom=0;top=0;fillColor=#e1d5e7;strokeColor=#9673a6;" parent="1" vertex="1">
                    <mxGeometry x="-1918" y="1854" width="168" height="40" as="geometry"/>
                </mxCell>
                <mxCell id="244" value="&lt;span style=&quot;color: rgb(63, 63, 63); font-size: 20px;&quot;&gt;HD3&lt;/span&gt;" style="rounded=1;whiteSpace=wrap;html=1;fillColor=#ffe6cc;strokeColor=#d79b00;arcSize=2;" parent="1" vertex="1">
                    <mxGeometry x="-2110" y="1805.75" width="160" height="176.5" as="geometry"/>
                </mxCell>
                <mxCell id="245" value="1&#39;b1" style="externalPins=0;recursiveResize=0;shadow=0;dashed=0;align=center;html=1;strokeWidth=1;shape=mxgraph.rtl.abstract.entity;container=1;collapsible=0;kind=input;drawPins=0;left=0;right=1;bottom=0;top=0;fillColor=#e1d5e7;strokeColor=#9673a6;" parent="1" vertex="1">
                    <mxGeometry x="-2260" y="1933" width="120" height="40" as="geometry"/>
                </mxCell>
                <mxCell id="220" value="1&#39;b0" style="externalPins=0;recursiveResize=0;shadow=0;dashed=0;align=center;html=1;strokeWidth=1;shape=mxgraph.rtl.abstract.entity;container=1;collapsible=0;kind=input;drawPins=0;left=0;right=1;bottom=0;top=0;fillColor=#e1d5e7;strokeColor=#9673a6;" parent="1" vertex="1">
                    <mxGeometry x="-2260" y="1635" width="120" height="40" as="geometry"/>
                </mxCell>
                <mxCell id="221" style="edgeStyle=none;html=1;exitX=0;exitY=0;exitDx=120;exitDy=20;exitPerimeter=0;entryX=0.004;entryY=0.161;entryDx=0;entryDy=0;entryPerimeter=0;" parent="1" source="220" target="229" edge="1">
                    <mxGeometry relative="1" as="geometry"/>
                </mxCell>
                <mxCell id="222" style="edgeStyle=none;html=1;exitX=0;exitY=0;exitDx=120;exitDy=20;exitPerimeter=0;fillColor=#dae8fc;strokeColor=light-dark(#4976b6, #5c79a3);" parent="1" source="248" edge="1">
                    <mxGeometry relative="1" as="geometry">
                        <mxPoint x="-2140" y="1694.75" as="sourcePoint"/>
                        <mxPoint x="-2110" y="1695" as="targetPoint"/>
                        <Array as="points">
                            <mxPoint x="-2310" y="1265.75"/>
                            <mxPoint x="-2310" y="1694.75"/>
                        </Array>
                    </mxGeometry>
                </mxCell>
                <mxCell id="224" style="edgeStyle=none;html=1;exitX=0;exitY=0;exitDx=120;exitDy=20;exitPerimeter=0;" parent="1" source="230" edge="1">
                    <mxGeometry relative="1" as="geometry">
                        <mxPoint x="-2110" y="1774" as="targetPoint"/>
                    </mxGeometry>
                </mxCell>
                <mxCell id="225" style="edgeStyle=none;html=1;exitX=1;exitY=0.614;exitDx=0;exitDy=0;exitPerimeter=0;entryX=0;entryY=0;entryDx=0;entryDy=20;entryPerimeter=0;" parent="1" source="229" target="227" edge="1">
                    <mxGeometry relative="1" as="geometry"/>
                </mxCell>
                <mxCell id="226" style="edgeStyle=none;html=1;exitX=0;exitY=0;exitDx=0;exitDy=20;exitPerimeter=0;entryX=0;entryY=0;entryDx=0;entryDy=20;entryPerimeter=0;" parent="1" target="228" edge="1">
                    <mxGeometry relative="1" as="geometry">
                        <mxPoint x="-1950" y="1695" as="sourcePoint"/>
                    </mxGeometry>
                </mxCell>
                <mxCell id="227" value="&lt;span style=&quot;color: rgb(0, 0, 0);&quot;&gt;o_branch_metric_2[0]&lt;/span&gt;" style="externalPins=0;recursiveResize=0;shadow=0;dashed=0;align=center;html=1;strokeWidth=1;shape=mxgraph.rtl.abstract.entity;container=1;collapsible=0;kind=output;drawPins=0;left=1;right=0;bottom=0;top=0;fillColor=#e1d5e7;strokeColor=#9673a6;" parent="1" vertex="1">
                    <mxGeometry x="-1918" y="1715" width="168" height="40" as="geometry"/>
                </mxCell>
                <mxCell id="228" value="&lt;span style=&quot;color: rgb(0, 0, 0);&quot;&gt;o_branch_metric_2[1]&lt;/span&gt;" style="externalPins=0;recursiveResize=0;shadow=0;dashed=0;align=center;html=1;strokeWidth=1;shape=mxgraph.rtl.abstract.entity;container=1;collapsible=0;kind=output;drawPins=0;left=1;right=0;bottom=0;top=0;fillColor=#e1d5e7;strokeColor=#9673a6;" parent="1" vertex="1">
                    <mxGeometry x="-1918" y="1675" width="168" height="40" as="geometry"/>
                </mxCell>
                <mxCell id="229" value="&lt;span style=&quot;color: rgb(63, 63, 63); font-size: 20px;&quot;&gt;HD2&lt;/span&gt;" style="rounded=1;whiteSpace=wrap;html=1;fillColor=#ffe6cc;strokeColor=#d79b00;arcSize=2;" parent="1" vertex="1">
                    <mxGeometry x="-2110" y="1626.75" width="160" height="176.5" as="geometry"/>
                </mxCell>
                <mxCell id="230" value="1&#39;b1" style="externalPins=0;recursiveResize=0;shadow=0;dashed=0;align=center;html=1;strokeWidth=1;shape=mxgraph.rtl.abstract.entity;container=1;collapsible=0;kind=input;drawPins=0;left=0;right=1;bottom=0;top=0;fillColor=#e1d5e7;strokeColor=#9673a6;" parent="1" vertex="1">
                    <mxGeometry x="-2260" y="1754" width="120" height="40" as="geometry"/>
                </mxCell>
                <mxCell id="206" value="1&#39;b1" style="externalPins=0;recursiveResize=0;shadow=0;dashed=0;align=center;html=1;strokeWidth=1;shape=mxgraph.rtl.abstract.entity;container=1;collapsible=0;kind=input;drawPins=0;left=0;right=1;bottom=0;top=0;fillColor=#e1d5e7;strokeColor=#9673a6;" parent="1" vertex="1">
                    <mxGeometry x="-2260" y="1456" width="120" height="40" as="geometry"/>
                </mxCell>
                <mxCell id="207" style="edgeStyle=none;html=1;exitX=0;exitY=0;exitDx=120;exitDy=20;exitPerimeter=0;entryX=0.004;entryY=0.161;entryDx=0;entryDy=0;entryPerimeter=0;" parent="1" source="206" target="215" edge="1">
                    <mxGeometry relative="1" as="geometry"/>
                </mxCell>
                <mxCell id="208" style="edgeStyle=none;html=1;exitX=0;exitY=0;exitDx=120;exitDy=20;exitPerimeter=0;fillColor=#dae8fc;strokeColor=light-dark(#4976b6, #5c79a3);" parent="1" source="248" edge="1">
                    <mxGeometry relative="1" as="geometry">
                        <mxPoint x="-2140" y="1515.75" as="sourcePoint"/>
                        <mxPoint x="-2110" y="1516" as="targetPoint"/>
                        <Array as="points">
                            <mxPoint x="-2310" y="1265.75"/>
                            <mxPoint x="-2310" y="1515.75"/>
                        </Array>
                    </mxGeometry>
                </mxCell>
                <mxCell id="210" style="edgeStyle=none;html=1;exitX=0;exitY=0;exitDx=120;exitDy=20;exitPerimeter=0;" parent="1" source="216" edge="1">
                    <mxGeometry relative="1" as="geometry">
                        <mxPoint x="-2110" y="1595" as="targetPoint"/>
                    </mxGeometry>
                </mxCell>
                <mxCell id="211" style="edgeStyle=none;html=1;exitX=1;exitY=0.614;exitDx=0;exitDy=0;exitPerimeter=0;entryX=0;entryY=0;entryDx=0;entryDy=20;entryPerimeter=0;" parent="1" source="215" target="213" edge="1">
                    <mxGeometry relative="1" as="geometry"/>
                </mxCell>
                <mxCell id="212" style="edgeStyle=none;html=1;exitX=0;exitY=0;exitDx=0;exitDy=20;exitPerimeter=0;entryX=0;entryY=0;entryDx=0;entryDy=20;entryPerimeter=0;" parent="1" target="214" edge="1">
                    <mxGeometry relative="1" as="geometry">
                        <mxPoint x="-1950" y="1516" as="sourcePoint"/>
                    </mxGeometry>
                </mxCell>
                <mxCell id="213" value="&lt;span style=&quot;color: rgb(0, 0, 0);&quot;&gt;o_branch_metric_1[0]&lt;/span&gt;" style="externalPins=0;recursiveResize=0;shadow=0;dashed=0;align=center;html=1;strokeWidth=1;shape=mxgraph.rtl.abstract.entity;container=1;collapsible=0;kind=output;drawPins=0;left=1;right=0;bottom=0;top=0;fillColor=#e1d5e7;strokeColor=#9673a6;" parent="1" vertex="1">
                    <mxGeometry x="-1918" y="1536" width="168" height="40" as="geometry"/>
                </mxCell>
                <mxCell id="214" value="&lt;span style=&quot;color: rgb(0, 0, 0);&quot;&gt;o_branch_metric_1[1]&lt;/span&gt;" style="externalPins=0;recursiveResize=0;shadow=0;dashed=0;align=center;html=1;strokeWidth=1;shape=mxgraph.rtl.abstract.entity;container=1;collapsible=0;kind=output;drawPins=0;left=1;right=0;bottom=0;top=0;fillColor=#e1d5e7;strokeColor=#9673a6;" parent="1" vertex="1">
                    <mxGeometry x="-1918" y="1496" width="168" height="40" as="geometry"/>
                </mxCell>
                <mxCell id="215" value="&lt;span style=&quot;color: rgb(63, 63, 63); font-size: 20px;&quot;&gt;HD1&lt;/span&gt;" style="rounded=1;whiteSpace=wrap;html=1;fillColor=#ffe6cc;strokeColor=#d79b00;arcSize=2;" parent="1" vertex="1">
                    <mxGeometry x="-2110" y="1447.75" width="160" height="176.5" as="geometry"/>
                </mxCell>
                <mxCell id="216" value="1&#39;b0" style="externalPins=0;recursiveResize=0;shadow=0;dashed=0;align=center;html=1;strokeWidth=1;shape=mxgraph.rtl.abstract.entity;container=1;collapsible=0;kind=input;drawPins=0;left=0;right=1;bottom=0;top=0;fillColor=#e1d5e7;strokeColor=#9673a6;" parent="1" vertex="1">
                    <mxGeometry x="-2260" y="1575" width="120" height="40" as="geometry"/>
                </mxCell>
                <mxCell id="147" value="1&#39;b0" style="externalPins=0;recursiveResize=0;shadow=0;dashed=0;align=center;html=1;strokeWidth=1;shape=mxgraph.rtl.abstract.entity;container=1;collapsible=0;kind=input;drawPins=0;left=0;right=1;bottom=0;top=0;fillColor=#e1d5e7;strokeColor=#9673a6;" parent="1" vertex="1">
                    <mxGeometry x="-2260" y="1276.75" width="120" height="40" as="geometry"/>
                </mxCell>
                <mxCell id="148" style="edgeStyle=none;html=1;exitX=0;exitY=0;exitDx=120;exitDy=20;exitPerimeter=0;entryX=0.004;entryY=0.161;entryDx=0;entryDy=0;entryPerimeter=0;" parent="1" source="147" target="156" edge="1">
                    <mxGeometry relative="1" as="geometry"/>
                </mxCell>
                <mxCell id="149" style="edgeStyle=none;html=1;exitX=0;exitY=0;exitDx=120;exitDy=20;exitPerimeter=0;fillColor=#dae8fc;strokeColor=light-dark(#4976b6, #5c79a3);" parent="1" source="248" edge="1">
                    <mxGeometry relative="1" as="geometry">
                        <mxPoint x="-2140" y="1336.5" as="sourcePoint"/>
                        <mxPoint x="-2110" y="1336.75" as="targetPoint"/>
                        <Array as="points">
                            <mxPoint x="-2310" y="1265.75"/>
                            <mxPoint x="-2310" y="1337.75"/>
                        </Array>
                    </mxGeometry>
                </mxCell>
                <mxCell id="151" style="edgeStyle=none;html=1;exitX=0;exitY=0;exitDx=120;exitDy=20;exitPerimeter=0;" parent="1" source="157" edge="1">
                    <mxGeometry relative="1" as="geometry">
                        <mxPoint x="-2110" y="1415.75" as="targetPoint"/>
                    </mxGeometry>
                </mxCell>
                <mxCell id="152" style="edgeStyle=none;html=1;exitX=1;exitY=0.614;exitDx=0;exitDy=0;exitPerimeter=0;entryX=0;entryY=0;entryDx=0;entryDy=20;entryPerimeter=0;" parent="1" source="156" target="154" edge="1">
                    <mxGeometry relative="1" as="geometry"/>
                </mxCell>
                <mxCell id="153" style="edgeStyle=none;html=1;exitX=0;exitY=0;exitDx=0;exitDy=20;exitPerimeter=0;entryX=0;entryY=0;entryDx=0;entryDy=20;entryPerimeter=0;" parent="1" target="155" edge="1">
                    <mxGeometry relative="1" as="geometry">
                        <mxPoint x="-1950" y="1336.75" as="sourcePoint"/>
                    </mxGeometry>
                </mxCell>
                <mxCell id="154" value="&lt;span style=&quot;color: rgb(0, 0, 0);&quot;&gt;o_branch_metric_0[0]&lt;/span&gt;" style="externalPins=0;recursiveResize=0;shadow=0;dashed=0;align=center;html=1;strokeWidth=1;shape=mxgraph.rtl.abstract.entity;container=1;collapsible=0;kind=output;drawPins=0;left=1;right=0;bottom=0;top=0;fillColor=#e1d5e7;strokeColor=#9673a6;" parent="1" vertex="1">
                    <mxGeometry x="-1918" y="1356.75" width="178" height="40" as="geometry"/>
                </mxCell>
                <mxCell id="155" value="o_branch_metric_0[1]" style="externalPins=0;recursiveResize=0;shadow=0;dashed=0;align=center;html=1;strokeWidth=1;shape=mxgraph.rtl.abstract.entity;container=1;collapsible=0;kind=output;drawPins=0;left=1;right=0;bottom=0;top=0;fillColor=#e1d5e7;strokeColor=#9673a6;" parent="1" vertex="1">
                    <mxGeometry x="-1918" y="1316.75" width="178" height="40" as="geometry"/>
                </mxCell>
                <mxCell id="156" value="&lt;span style=&quot;color: rgb(63, 63, 63); font-size: 20px;&quot;&gt;HD0&lt;/span&gt;" style="rounded=1;whiteSpace=wrap;html=1;fillColor=#ffe6cc;strokeColor=#d79b00;arcSize=2;" parent="1" vertex="1">
                    <mxGeometry x="-2110" y="1268.5" width="160" height="176.5" as="geometry"/>
                </mxCell>
                <mxCell id="157" value="1&#39;b0" style="externalPins=0;recursiveResize=0;shadow=0;dashed=0;align=center;html=1;strokeWidth=1;shape=mxgraph.rtl.abstract.entity;container=1;collapsible=0;kind=input;drawPins=0;left=0;right=1;bottom=0;top=0;fillColor=#e1d5e7;strokeColor=#9673a6;" parent="1" vertex="1">
                    <mxGeometry x="-2260" y="1395.75" width="120" height="40" as="geometry"/>
                </mxCell>
                <mxCell id="255" value="&lt;span style=&quot;font-size: 15px;&quot;&gt;Block Branch Metric Unit&lt;/span&gt;" style="rounded=1;whiteSpace=wrap;html=1;fillColor=#e1d5e7;strokeColor=#9673a6;" parent="1" vertex="1">
                    <mxGeometry x="-2220" y="2030" width="240" height="40" as="geometry"/>
                </mxCell>
            </root>
        </mxGraphModel>
    </diagram>
</mxfile>